<svg width="512" height="512" version="1.1" viewBox="0 0 135.47 135.47" xmlns="http://www.w3.org/2000/svg">
 <path d="m70.75 6.7733a29.289 31.649 0 0 0-25.101 15.454 29.289 31.649 0 0 0-6.7763-0.86571 29.289 31.649 0 0 0-29.288 31.649 29.289 31.649 0 0 0 1.5957 10.104 34.423 30.648 0 0 0-4.4062 14.843 34.423 30.648 0 0 0 16.706 26.217 29.289 31.649 0 0 0 28.041 22.553 29.289 31.649 0 0 0 8.3547-1.3231 34.423 40.692 0 0 0 13.42 3.2886 34.423 40.692 0 0 0 26.295-14.487 31.513 34.707 0 0 0 18.959-23.98 40.539 37.875 0 0 0 10.143-25.028 40.539 37.875 0 0 0-30.106-36.588 29.289 31.649 0 0 0-27.837-21.837z" fill="#4e7980" stroke="#e0f2e6" stroke-dashoffset="33.7" stroke-linecap="square" stroke-miterlimit=".1" stroke-width="3.931" style="paint-order:stroke fill markers"/>
 <path transform="translate(0 1.7896)" d="m67.733 21.426a17.125 17.731 0 0 0-17.125 17.731 17.125 17.731 0 0 0 17.125 17.731 17.125 17.731 0 0 0 17.125-17.731 17.125 17.731 0 0 0-17.125-17.731zm-13.525 39.903c-16.71 5.3861-13.849 35.082-13.849 49.133h54.748c0-14.052 2.8616-43.747-13.849-49.133z" fill="#b92947" style="paint-order:stroke fill markers"/>
</svg>
