<svg xmlns="http://www.w3.org/2000/svg" xml:space="preserve" viewBox="0 0 135.467 135.467"><path fill="#d9bc64" d="M10.999 105.363V45.156l52.14 30.103v60.208z"/><path fill="#eedeb4" d="m63.14 135.467 52.14-30.104V45.156L63.14 75.259Z"/><path fill="#b92947" d="m63.14 0 26.07 15.052-26.07 15.052-26.07-15.052Z"/><path fill="#8c1f36" d="M63.14 75.26V30.103L37.07 15.052 10.998 45.156Z"/><path fill="#b92947" d="M115.28 45.156 89.21 15.052 63.14 30.104v45.155z"/><path fill="#b92947" stroke="#20283d" stroke-width=".94" d="M89.21 120.415V90.31l13.036-7.526v30.104"/><path fill="#4e7980" stroke="#20283d" stroke-linecap="round" stroke-linejoin="round" stroke-width=".94" d="m69.657 94.074 13.036-7.526V101.6l-13.036 7.526z"/><path fill="#68b4a4" d="m63.14 75.26 13.035 22.577-13.035-7.526zm52.14-30.104 13.036 22.577-52.141 30.104L63.14 75.259Z"/><path fill="#da6956" d="m63.14 75.26 13.035 22.577 6.518-3.763-13.036-22.578zm32.588 11.288L82.693 63.97l-6.518 3.763L89.21 90.311zm6.518-3.763 6.517-3.763-13.035-22.578-6.518 3.763Zm13.034-7.525 6.518-3.764-13.035-22.577-6.517 3.762z"/><path fill="#68b4a4" d="M82.693 94.074c0 1.344-.622 2.945-1.63 4.2-1.008 1.254-2.25 1.971-3.259 1.881-1.008-.09-1.63-.974-1.63-2.318l3.26-1.881z"/><path fill="#da6956" d="M89.21 90.311c0 1.344-.62 2.945-1.63 4.2-1.007 1.254-2.25 1.971-3.258 1.881-1.008-.09-1.63-.974-1.63-2.318l3.26-1.881z"/><path fill="#68b4a4" d="M95.728 86.548c0 1.345-.621 2.945-1.63 4.2-1.008 1.254-2.25 1.971-3.258 1.881-1.009-.09-1.63-.974-1.63-2.318l3.259-1.881z"/><path fill="#da6956" d="M102.246 82.785c0 1.345-.622 2.945-1.63 4.2-1.008 1.254-2.25 1.971-3.259 1.881-1.008-.09-1.63-.974-1.63-2.318l3.26-1.881z"/><path fill="#68b4a4" d="M108.763 79.022c0 1.345-.621 2.945-1.63 4.2-1.008 1.254-2.25 1.971-3.258 1.881-1.008-.09-1.63-.973-1.63-2.318l3.26-1.881z"/><path fill="#da6956" d="M115.28 75.26c0 1.344-.62 2.944-1.629 4.199-1.008 1.254-2.25 1.971-3.258 1.881-1.009-.09-1.63-.973-1.63-2.318l3.259-1.881z"/><path fill="#68b4a4" d="M121.798 71.496c0 1.345-.62 2.946-1.629 4.2-1.008 1.254-2.25 1.971-3.259 1.881-1.008-.09-1.63-.973-1.63-2.318l3.26-1.881z"/><path fill="#da6956" d="M128.316 67.733c0 1.345-.621 2.946-1.63 4.2-1.008 1.254-2.25 1.971-3.258 1.881-1.008-.09-1.63-.973-1.63-2.318l3.26-1.881z"/></svg>